<svg width="300" height="220" viewBox="0 0 300 220" fill="none" xmlns="http://www.w3.org/2000/svg">
<rect width="300" height="220" fill="white"/>
<circle cx="146" cy="110" r="90" fill="#E8F2FF"/>
<g filter="url(#filter0_f)">
<circle cx="146" cy="110" r="70" fill="#E9F1FE"/>
</g>
<g filter="url(#filter1_d)">
<rect x="66" y="41" width="160" height="132" rx="2" fill="white"/>
</g>
<path d="M66 43C66 41.8954 66.8954 41 68 41H224C225.105 41 226 41.8954 226 43V85H66V43Z" fill="url(#paint0_linear)"/>
<rect x="81" y="76" width="60" height="38" rx="2" fill="#EEF1F7"/>
<rect x="151" y="76" width="60" height="38" rx="2" fill="#F2F3F6"/>
<rect x="81" y="124" width="60" height="38" rx="2" fill="#EEF1F7"/>
<rect x="151" y="124" width="60" height="38" rx="2" fill="#F4F5F8"/>
<g filter="url(#filter2_d)">
<rect x="146" y="119" width="70" height="48" rx="3" fill="white" fill-opacity="0.2"/>
<rect x="150.25" y="123.25" width="61.5" height="39.5" rx="2.75" fill="white" stroke="#B1B7C4" stroke-width="1.5" stroke-dasharray="5 4"/>
<path fill-rule="evenodd" clip-rule="evenodd" d="M180 151C180 151.552 180.448 152 181 152H182C182.552 152 183 151.552 183 151V145H189C189.552 145 190 144.552 190 144V143C190 142.448 189.552 142 189 142H183V136C183 135.448 182.552 135 182 135H181C180.448 135 180 135.448 180 136V142H174C173.448 142 173 142.448 173 143V144C173 144.552 173.448 145 174 145H180V151Z" fill="#2A63F6"/>
</g>
<circle cx="74" cy="49" r="2" fill="#4D5677"/>
<circle cx="81" cy="49" r="2" fill="#4D5677"/>
<circle cx="88" cy="49" r="2" fill="#4D5677"/>
<g filter="url(#filter3_d)">
<path d="M151 61C151 59.8954 151.895 59 153 59H242C243.105 59 244 59.8954 244 61V112C244 113.105 243.105 114 242 114H153C151.895 114 151 113.105 151 112V61Z" fill="white"/>
</g>
<path d="M182.431 79.1217C182.529 78.4114 183.137 77.8823 183.854 77.8823H213.323C214.04 77.8823 214.647 78.4114 214.745 79.1217L217.951 102.368C218.07 103.231 217.4 104 216.529 104H180.647C179.776 104 179.106 103.231 179.225 102.368L182.431 79.1217Z" fill="#C8D6F2"/>
<mask id="mask0" mask-type="alpha" maskUnits="userSpaceOnUse" x="179" y="77" width="39" height="27">
<path d="M182.431 79.1217C182.529 78.4114 183.137 77.8823 183.854 77.8823H213.323C214.04 77.8823 214.647 78.4114 214.745 79.1217L217.951 102.368C218.07 103.231 217.4 104 216.529 104H180.647C179.776 104 179.106 103.231 179.225 102.368L182.431 79.1217Z" fill="#C8D6F2"/>
</mask>
<g mask="url(#mask0)">
<circle cx="198.044" cy="71.6656" r="23.3276" fill="url(#paint1_linear)"/>
</g>
<circle cx="191.584" cy="81.7143" r="3.22997" fill="#A8B6DA"/>
<circle cx="204.504" cy="81.7143" r="3.22997" fill="#A8B6DA"/>
<circle cx="191.584" cy="81.7143" r="2.15332" fill="#7C8AAA"/>
<circle cx="204.504" cy="81.7143" r="2.15332" fill="#7C8AAA"/>
<path opacity="0.3" d="M188.794 77.8823H194.235L193.847 82.2353H189.183L188.794 77.8823Z" fill="url(#paint2_linear)" fill-opacity="0.7"/>
<path opacity="0.3" d="M201.853 77.8823H207.294L206.905 82.2353H202.242L201.853 77.8823Z" fill="url(#paint3_linear)" fill-opacity="0.7"/>
<path d="M182.431 79.1217C182.529 78.4114 183.137 77.8823 183.854 77.8823H213.323C214.04 77.8823 214.647 78.4114 214.745 79.1217L217.951 102.368C218.07 103.231 217.4 104 216.529 104H180.647C179.776 104 179.106 103.231 179.225 102.368L182.431 79.1217Z" fill="black" fill-opacity="0.08"/>
<path d="M204.504 81.3554V74.8955C204.504 71.3278 201.612 68.4355 198.044 68.4355V68.4355C194.476 68.4355 191.584 71.3278 191.584 74.8955V81.3554" stroke="url(#paint4_linear)" stroke-width="3.08044" stroke-linecap="round" stroke-linejoin="round"/>
<rect x="81" y="59" width="61" height="10" rx="2" fill="black" fill-opacity="0.08"/>
<defs>
<filter id="filter0_f" x="36" y="0" width="220" height="220" filterUnits="userSpaceOnUse" color-interpolation-filters="sRGB">
<feFlood flood-opacity="0" result="BackgroundImageFix"/>
<feBlend mode="normal" in="SourceGraphic" in2="BackgroundImageFix" result="shape"/>
<feGaussianBlur stdDeviation="20" result="effect1_foregroundBlur"/>
</filter>
<filter id="filter1_d" x="26" y="5" width="240" height="212" filterUnits="userSpaceOnUse" color-interpolation-filters="sRGB">
<feFlood flood-opacity="0" result="BackgroundImageFix"/>
<feColorMatrix in="SourceAlpha" type="matrix" values="0 0 0 0 0 0 0 0 0 0 0 0 0 0 0 0 0 0 127 0"/>
<feOffset dy="4"/>
<feGaussianBlur stdDeviation="20"/>
<feColorMatrix type="matrix" values="0 0 0 0 0 0 0 0 0 0 0 0 0 0 0 0 0 0 0.12 0"/>
<feBlend mode="normal" in2="BackgroundImageFix" result="effect1_dropShadow"/>
<feBlend mode="normal" in="SourceGraphic" in2="effect1_dropShadow" result="shape"/>
</filter>
<filter id="filter2_d" x="106" y="79" width="150" height="128" filterUnits="userSpaceOnUse" color-interpolation-filters="sRGB">
<feFlood flood-opacity="0" result="BackgroundImageFix"/>
<feColorMatrix in="SourceAlpha" type="matrix" values="0 0 0 0 0 0 0 0 0 0 0 0 0 0 0 0 0 0 127 0"/>
<feOffset/>
<feGaussianBlur stdDeviation="20"/>
<feColorMatrix type="matrix" values="0 0 0 0 0 0 0 0 0 0 0 0 0 0 0 0 0 0 0.1 0"/>
<feBlend mode="normal" in2="BackgroundImageFix" result="effect1_dropShadow"/>
<feBlend mode="normal" in="SourceGraphic" in2="effect1_dropShadow" result="shape"/>
</filter>
<filter id="filter3_d" x="111" y="23" width="173" height="135" filterUnits="userSpaceOnUse" color-interpolation-filters="sRGB">
<feFlood flood-opacity="0" result="BackgroundImageFix"/>
<feColorMatrix in="SourceAlpha" type="matrix" values="0 0 0 0 0 0 0 0 0 0 0 0 0 0 0 0 0 0 127 0"/>
<feOffset dy="4"/>
<feGaussianBlur stdDeviation="20"/>
<feColorMatrix type="matrix" values="0 0 0 0 0 0 0 0 0 0 0 0 0 0 0 0 0 0 0.12 0"/>
<feBlend mode="normal" in2="BackgroundImageFix" result="effect1_dropShadow"/>
<feBlend mode="normal" in="SourceGraphic" in2="effect1_dropShadow" result="shape"/>
</filter>
<linearGradient id="paint0_linear" x1="66" y1="63" x2="226" y2="63" gradientUnits="userSpaceOnUse">
<stop stop-color="#59647C"/>
<stop offset="1" stop-color="#7A8499"/>
</linearGradient>
<linearGradient id="paint1_linear" x1="199.314" y1="96.0196" x2="197.863" y2="74.9804" gradientUnits="userSpaceOnUse">
<stop stop-opacity="0.08"/>
<stop offset="1" stop-color="white" stop-opacity="0"/>
</linearGradient>
<linearGradient id="paint2_linear" x1="191.515" y1="77.8823" x2="191.515" y2="82.2353" gradientUnits="userSpaceOnUse">
<stop stop-color="#1E2A48"/>
<stop offset="1" stop-color="#292D38" stop-opacity="0"/>
</linearGradient>
<linearGradient id="paint3_linear" x1="204.574" y1="77.8823" x2="204.574" y2="82.2353" gradientUnits="userSpaceOnUse">
<stop stop-color="#1E2A48"/>
<stop offset="1" stop-color="#292D38" stop-opacity="0"/>
</linearGradient>
<linearGradient id="paint4_linear" x1="198.044" y1="68.4355" x2="198.044" y2="81.3554" gradientUnits="userSpaceOnUse">
<stop stop-color="#AEB8CE"/>
<stop offset="1" stop-color="#697591"/>
</linearGradient>
</defs>
</svg>
