<?xml version="1.0" encoding="UTF-8"?>
<svg width="300px" height="220px" viewBox="0 0 300 220" version="1.1" xmlns="http://www.w3.org/2000/svg" xmlns:xlink="http://www.w3.org/1999/xlink">
    <title>创建和管理博客</title>
    <defs>
        <rect id="path-1" x="66" y="41" width="160" height="132" rx="2"></rect>
        <filter x="-38.8%" y="-43.9%" width="177.5%" height="193.9%" filterUnits="objectBoundingBox" id="filter-2">
            <feOffset dx="0" dy="4" in="SourceAlpha" result="shadowOffsetOuter1"></feOffset>
            <feGaussianBlur stdDeviation="20" in="shadowOffsetOuter1" result="shadowBlurOuter1"></feGaussianBlur>
            <feColorMatrix values="0 0 0 0 0   0 0 0 0 0   0 0 0 0 0  0 0 0 0.12 0" type="matrix" in="shadowBlurOuter1"></feColorMatrix>
        </filter>
        <linearGradient x1="0%" y1="50%" x2="100%" y2="50%" id="linearGradient-3">
            <stop stop-color="#59647C" offset="0%"></stop>
            <stop stop-color="#7A8499" offset="100%"></stop>
        </linearGradient>
    </defs>
    <g id="页面-1" stroke="none" stroke-width="1" fill="none" fill-rule="evenodd">
        <g id="创建和管理博客" fill-rule="nonzero">
            <rect id="矩形" x="0" y="0" width="300" height="220"></rect>
            <circle id="椭圆形" fill="#E8F2FF" cx="146" cy="110" r="90"></circle>
            <circle id="椭圆形" fill="#E9F1FE" cx="146" cy="110" r="70"></circle>
            <g id="矩形">
                <use fill="black" fill-opacity="1" filter="url(#filter-2)" xlink:href="#path-1"></use>
                <use fill="#FFFFFF" xlink:href="#path-1"></use>
            </g>
            <path d="M66,43 C66,41.8954 66.8954,41 68,41 L224,41 C225.105,41 226,41.8954 226,43 L226,58 L66,58 L66,43 Z" id="路径" fill="url(#linearGradient-3)"></path>
            <circle id="椭圆形" fill="#4D5677" cx="74" cy="49" r="2"></circle>
            <circle id="椭圆形" fill="#4D5677" cx="81" cy="49" r="2"></circle>
            <circle id="椭圆形" fill="#4D5677" cx="88" cy="49" r="2"></circle>
            <circle id="椭圆形" fill="#356DFF" cx="63" cy="97" r="20"></circle>
            <path d="M71.9055,98.3897 C71.9519,98.0286 71.9867,97.6675 71.9867,97.2839 C71.9867,96.9002 71.9519,96.5391 71.9055,96.1781 L74.3532,94.3162 C74.5736,94.147 74.6316,93.8423 74.4924,93.5941 L72.1723,89.6899 C72.0331,89.4416 71.7199,89.3513 71.4647,89.4416 L68.5762,90.57 C67.973,90.1186 67.3233,89.7463 66.6157,89.4642 L66.1749,86.474 C66.1557,86.3412 66.0874,86.2198 65.9827,86.1326 C65.8781,86.0453 65.7443,85.9982 65.6065,86.0000447 L60.9663,86.0000447 C60.6763,86.0000447 60.4327,86.2032 60.3979,86.474 L59.9571,89.4642 C59.2495,89.7463 58.5998,90.1299 57.9966,90.57 L55.1081,89.4416 C54.8413,89.3401 54.5397,89.4416 54.4005,89.6899 L52.0804,93.5941 C51.9296,93.8423 51.9992,94.147 52.2196,94.3162 L54.6673,96.1781 C54.6209,96.5391 54.5861,96.9115 54.5861,97.2839 C54.5861,97.6562 54.6209,98.0286 54.6673,98.3897 L52.2196,100.252 C51.9992,100.421 51.9412,100.725 52.0804,100.974 L54.4005,104.878 C54.5397,105.126 54.8529,105.216 55.1081,105.126 L57.9966,103.998 C58.5998,104.449 59.2495,104.821 59.9571,105.104 L60.3979,108.094 C60.4327,108.365 60.6763,108.568 60.9663,108.568 L65.6065,108.568 C65.8965,108.568 66.1401,108.365 66.1749,108.094 L66.6157,105.104 C67.3233,104.821 67.973,104.438 68.5762,103.998 L71.4647,105.126 C71.7315,105.228 72.0331,105.126 72.1723,104.878 L74.4924,100.974 C74.6316,100.725 74.5736,100.421 74.3532,100.252 L71.9055,98.3897 Z M63.2864,101.233 C61.0475,101.233 59.2263,99.4616 59.2263,97.2839 C59.2263,95.1061 61.0475,93.3345 63.2864,93.3345 C65.5253,93.3345 67.3465,95.1061 67.3465,97.2839 C67.3465,99.4616 65.5253,101.233 63.2864,101.233 Z" id="形状" fill="#FFFFFF"></path>
            <rect id="矩形" fill="#EEF1F7" x="88" y="127" width="124" height="5" rx="2"></rect>
            <rect id="矩形" fill="#EEF1F7" x="128" y="66" width="44" height="5" rx="2"></rect>
            <rect id="矩形" fill="#EEF1F7" x="88" y="141" width="74" height="5" rx="2"></rect>
            <rect id="矩形" fill="#EEF1F7" x="88" y="155" width="74" height="5" rx="2"></rect>
            <circle id="椭圆形" fill="#356DFF" cx="212" cy="155" r="20"></circle>
            <rect id="矩形" fill="#FFFFFF" x="204" y="153" width="17" height="3" rx="1"></rect>
            <rect id="矩形" fill="#FFFFFF" transform="translate(212.500000, 154.500000) rotate(-90.000000) translate(-212.500000, -154.500000) " x="204" y="153" width="17" height="3" rx="1"></rect>
            <path d="M88,82 C88,80.8954 88.8954,80 90,80 L210,80 C211.105,80 212,80.8954 212,82 L212,116 C212,117.105 211.105,118 210,118 L90,118 C88.8954,118 88,117.105 88,116 L88,82 Z" id="路径" fill="#EEF1F6"></path>
            <path d="M140.115,90.6448 C140.547,89.9351 141.577,89.9351 142.009,90.6448 L153.961,110.275 C154.411,111.014 153.879,111.96 153.014,111.96 L129.111,111.96 C128.245,111.96 127.714,111.014 128.163,110.275 L140.115,90.6448 Z" id="路径" fill="#909BB3"></path>
            <path d="M152.877,95.1517 C153.312,94.4611 154.319,94.4611 154.754,95.1517 L164.269,110.259 C164.734,110.998 164.203,111.959 163.33,111.959 L144.3,111.959 C143.427,111.959 142.897,110.998 143.362,110.259 L152.877,95.1517 Z" id="路径" fill="#B8C5DF"></path>
            <circle id="椭圆形" fill="#B8C5DF" cx="160.33" cy="89" r="3"></circle>
        </g>
    </g>
</svg>