<svg width="300" height="220" viewBox="0 0 300 220" fill="none" xmlns="http://www.w3.org/2000/svg">
<path d="M300 0H0V220H300V0Z" fill="white"/>
<circle cx="146" cy="110" r="90" fill="#E8F2FF"/>
<g filter="url(#filter0_f_19494:85587)">
<circle cx="146" cy="110" r="70" fill="#E9F1FE"/>
</g>
<g filter="url(#filter1_d_19494:85587)">
<rect x="66" y="41" width="160" height="132" fill="white"/>
</g>
<path d="M66 43C66 41.8954 66.8954 41 68 41H224C225.105 41 226 41.8954 226 43V58H66V43Z" fill="url(#paint0_linear_19494:85587)"/>
<circle cx="74" cy="49" r="2" fill="#4D5677"/>
<circle cx="81" cy="49" r="2" fill="#4D5677"/>
<circle cx="88" cy="49" r="2" fill="#4D5677"/>
<rect x="136" y="71.5713" width="68" height="5" rx="2" fill="#EEF1F7"/>
<rect x="136" y="82.5713" width="36" height="5" rx="2" fill="#EEF1F7"/>
<path d="M94 71C94 69.8954 94.8954 69 96 69H126C127.105 69 128 69.8954 128 71V89C128 90.1046 127.105 91 126 91H96C94.8954 91 94 90.1046 94 89V71Z" fill="#EEF1F6"/>
<path d="M106.619 75.2201C106.882 74.7893 107.507 74.7893 107.769 75.2201L115.026 87.1383C115.299 87.587 114.976 88.1617 114.451 88.1617H99.938C99.4127 88.1617 99.0898 87.587 99.3629 87.1383L106.619 75.2201Z" fill="#909BB3"/>
<path d="M114.367 77.9561C114.631 77.5368 115.242 77.5368 115.506 77.9561L121.284 87.1284C121.566 87.5767 121.244 88.1605 120.714 88.1605H109.16C108.63 88.1605 108.308 87.5767 108.59 87.1284L114.367 77.9561Z" fill="#B8C5DF"/>
<circle cx="118.893" cy="74.2213" r="1.82143" fill="#B8C5DF"/>
<rect x="136" y="105.571" width="68" height="5" rx="2" fill="#EEF1F7"/>
<rect x="136" y="116.571" width="36" height="5" rx="2" fill="#EEF1F7"/>
<path d="M94 105C94 103.895 94.8954 103 96 103H126C127.105 103 128 103.895 128 105V123C128 124.105 127.105 125 126 125H96C94.8954 125 94 124.105 94 123V105Z" fill="#EEF1F6"/>
<path d="M106.619 109.22C106.882 108.789 107.507 108.789 107.769 109.22L115.026 121.138C115.299 121.587 114.976 122.162 114.451 122.162H99.938C99.4127 122.162 99.0898 121.587 99.3629 121.138L106.619 109.22Z" fill="#909BB3"/>
<path d="M114.367 111.956C114.631 111.537 115.242 111.537 115.506 111.956L121.284 121.128C121.566 121.577 121.244 122.16 120.714 122.16H109.16C108.63 122.16 108.308 121.577 108.59 121.128L114.367 111.956Z" fill="#B8C5DF"/>
<circle cx="118.893" cy="108.221" r="1.82143" fill="#B8C5DF"/>
<rect x="136" y="139.571" width="68" height="5" rx="2" fill="#EEF1F7"/>
<rect x="136" y="150.571" width="36" height="5" rx="2" fill="#EEF1F7"/>
<path d="M94 139C94 137.895 94.8954 137 96 137H126C127.105 137 128 137.895 128 139V157C128 158.105 127.105 159 126 159H96C94.8954 159 94 158.105 94 157V139Z" fill="#EEF1F6"/>
<path d="M106.619 143.22C106.882 142.789 107.507 142.789 107.769 143.22L115.026 155.138C115.299 155.587 114.976 156.162 114.451 156.162H99.938C99.4127 156.162 99.0898 155.587 99.3629 155.138L106.619 143.22Z" fill="#909BB3"/>
<path d="M114.367 145.956C114.631 145.537 115.242 145.537 115.506 145.956L121.284 155.128C121.566 155.577 121.244 156.16 120.714 156.16H109.16C108.63 156.16 108.308 155.577 108.59 155.128L114.367 145.956Z" fill="#B8C5DF"/>
<circle cx="118.893" cy="142.221" r="1.82143" fill="#B8C5DF"/>
<circle cx="63" cy="97" r="20" fill="#356DFF"/>
<path d="M71.9055 98.3897C71.9519 98.0286 71.9867 97.6675 71.9867 97.2839C71.9867 96.9002 71.9519 96.5391 71.9055 96.1781L74.3532 94.3162C74.5736 94.147 74.6316 93.8423 74.4924 93.5941L72.1723 89.6899C72.0331 89.4416 71.7199 89.3513 71.4647 89.4416L68.5762 90.57C67.973 90.1186 67.3233 89.7463 66.6157 89.4642L66.1749 86.474C66.1557 86.3412 66.0874 86.2198 65.9827 86.1326C65.8781 86.0453 65.7443 85.9982 65.6065 86.0001H60.9663C60.6763 86.0001 60.4327 86.2032 60.3979 86.474L59.9571 89.4642C59.2495 89.7463 58.5998 90.1299 57.9966 90.57L55.1081 89.4416C54.8413 89.3401 54.5397 89.4416 54.4005 89.6899L52.0804 93.5941C51.9296 93.8423 51.9992 94.147 52.2196 94.3162L54.6673 96.1781C54.6209 96.5391 54.5861 96.9115 54.5861 97.2839C54.5861 97.6562 54.6209 98.0286 54.6673 98.3897L52.2196 100.252C51.9992 100.421 51.9412 100.725 52.0804 100.974L54.4005 104.878C54.5397 105.126 54.8529 105.216 55.1081 105.126L57.9966 103.998C58.5998 104.449 59.2495 104.821 59.9571 105.104L60.3979 108.094C60.4327 108.365 60.6763 108.568 60.9663 108.568H65.6065C65.8965 108.568 66.1401 108.365 66.1749 108.094L66.6157 105.104C67.3233 104.821 67.973 104.438 68.5762 103.998L71.4647 105.126C71.7315 105.228 72.0331 105.126 72.1723 104.878L74.4924 100.974C74.6316 100.725 74.5736 100.421 74.3532 100.252L71.9055 98.3897ZM63.2864 101.233C61.0475 101.233 59.2263 99.4616 59.2263 97.2839C59.2263 95.1061 61.0475 93.3345 63.2864 93.3345C65.5253 93.3345 67.3465 95.1061 67.3465 97.2839C67.3465 99.4616 65.5253 101.233 63.2864 101.233Z" fill="white"/>
<circle cx="212" cy="155" r="20" fill="#356DFF"/>
<rect x="204" y="153" width="17" height="3" rx="1" fill="white"/>
<rect x="211" y="163" width="17" height="3" rx="1" transform="rotate(-90 211 163)" fill="white"/>
<defs>
<filter id="filter0_f_19494:85587" x="36" y="0" width="220" height="220" filterUnits="userSpaceOnUse" color-interpolation-filters="sRGB">
<feFlood flood-opacity="0" result="BackgroundImageFix"/>
<feBlend mode="normal" in="SourceGraphic" in2="BackgroundImageFix" result="shape"/>
<feGaussianBlur stdDeviation="20" result="effect1_foregroundBlur_19494:85587"/>
</filter>
<filter id="filter1_d_19494:85587" x="26" y="5" width="240" height="212" filterUnits="userSpaceOnUse" color-interpolation-filters="sRGB">
<feFlood flood-opacity="0" result="BackgroundImageFix"/>
<feColorMatrix in="SourceAlpha" type="matrix" values="0 0 0 0 0 0 0 0 0 0 0 0 0 0 0 0 0 0 127 0" result="hardAlpha"/>
<feOffset dy="4"/>
<feGaussianBlur stdDeviation="20"/>
<feColorMatrix type="matrix" values="0 0 0 0 0 0 0 0 0 0 0 0 0 0 0 0 0 0 0.12 0"/>
<feBlend mode="normal" in2="BackgroundImageFix" result="effect1_dropShadow_19494:85587"/>
<feBlend mode="normal" in="SourceGraphic" in2="effect1_dropShadow_19494:85587" result="shape"/>
</filter>
<linearGradient id="paint0_linear_19494:85587" x1="66" y1="49.5" x2="226" y2="49.5" gradientUnits="userSpaceOnUse">
<stop stop-color="#59647C"/>
<stop offset="1" stop-color="#7A8499"/>
</linearGradient>
</defs>
</svg>
