<?xml version="1.0" encoding="UTF-8"?>
<svg width="300px" height="220px" viewBox="0 0 300 220" version="1.1" xmlns="http://www.w3.org/2000/svg" xmlns:xlink="http://www.w3.org/1999/xlink">
    <title>创建细分人群</title>
    <defs>
        <rect id="path-1" x="66" y="41" width="160" height="132" rx="2"></rect>
        <filter x="-38.8%" y="-43.9%" width="177.5%" height="193.9%" filterUnits="objectBoundingBox" id="filter-2">
            <feOffset dx="0" dy="4" in="SourceAlpha" result="shadowOffsetOuter1"></feOffset>
            <feGaussianBlur stdDeviation="20" in="shadowOffsetOuter1" result="shadowBlurOuter1"></feGaussianBlur>
            <feColorMatrix values="0 0 0 0 0   0 0 0 0 0   0 0 0 0 0  0 0 0 0.12 0" type="matrix" in="shadowBlurOuter1"></feColorMatrix>
        </filter>
        <linearGradient x1="0%" y1="50%" x2="100%" y2="50%" id="linearGradient-3">
            <stop stop-color="#59647C" offset="0%"></stop>
            <stop stop-color="#7A8499" offset="100%"></stop>
        </linearGradient>
        <linearGradient x1="0%" y1="50%" x2="100%" y2="50%" id="linearGradient-4">
            <stop stop-color="#59647C" offset="0%"></stop>
            <stop stop-color="#7A8499" offset="100%"></stop>
        </linearGradient>
    </defs>
    <g id="页面-1" stroke="none" stroke-width="1" fill="none" fill-rule="evenodd">
        <g id="创建细分人群">
            <rect id="矩形" fill-rule="nonzero" x="0" y="0" width="300" height="220"></rect>
            <circle id="椭圆形" fill="#E8F2FF" fill-rule="nonzero" cx="146" cy="110" r="90"></circle>
            <circle id="椭圆形" fill="#E9F1FE" fill-rule="nonzero" cx="146" cy="110" r="70"></circle>
            <g id="矩形" fill-rule="nonzero">
                <use fill="black" fill-opacity="1" filter="url(#filter-2)" xlink:href="#path-1"></use>
                <use fill="#FFFFFF" xlink:href="#path-1"></use>
            </g>
            <path d="M66,43 C66,41.8954 66.8954,41 68,41 L224,41 C225.105,41 226,41.8954 226,43 L226,85 L66,85 L66,43 Z" id="路径" fill="url(#linearGradient-3)" fill-rule="nonzero"></path>
            <rect id="矩形" fill-opacity="0.08" fill="#000000" fill-rule="nonzero" x="81" y="59" width="61" height="10" rx="2"></rect>
            <circle id="椭圆形" fill="#4D5677" fill-rule="nonzero" cx="74" cy="49" r="2"></circle>
            <circle id="椭圆形" fill="#4D5677" fill-rule="nonzero" cx="81" cy="49" r="2"></circle>
            <circle id="椭圆形" fill="#4D5677" fill-rule="nonzero" cx="88" cy="49" r="2"></circle>
            <path d="M81,79 C81,77.8954 81.8954,77 83,77 L199,77 C200.105,77 201,77.8954 201,79 L201,161 C201,162.105 200.105,163 199,163 L83,163 C81.8954,163 81,162.105 81,161 L81,79 Z" id="路径" fill="#FFFFFF" fill-rule="nonzero"></path>
            <rect id="矩形" fill="#E2E7EE" fill-rule="nonzero" x="127" y="101" width="48" height="3" rx="1.5"></rect>
            <rect id="矩形" fill="#E2E7EE" fill-rule="nonzero" x="127" y="108" width="31" height="3" rx="1.5"></rect>
            <rect id="矩形" fill="url(#linearGradient-4)" fill-rule="nonzero" x="127" y="91" width="26" height="6" rx="3"></rect>
            <rect id="矩形" fill="#E2E7EE" fill-rule="nonzero" x="90" y="87" width="27" height="27" rx="2"></rect>
            <circle id="椭圆形" fill="#FFFFFF" fill-rule="nonzero" cx="103.5" cy="94.8158" r="5.68421"></circle>
            <path d="M113.447,111.158 L92.8421,111.158 C92.8421,105.664 97.2957,101.21 102.789,101.21 L103.5,101.21 C108.994,101.21 113.447,105.664 113.447,111.158 Z" id="路径" fill="#FFFFFF"></path>
            <rect id="矩形" fill="#E2E7EE" fill-rule="nonzero" x="127" y="140" width="48" height="3" rx="1.5"></rect>
            <rect id="矩形" fill="#E2E7EE" fill-rule="nonzero" x="127" y="147" width="31" height="3" rx="1.5"></rect>
            <rect id="矩形" fill="url(#linearGradient-4)" fill-rule="nonzero" x="127" y="130" width="26" height="6" rx="3"></rect>
            <rect id="矩形" fill="#E2E7EE" fill-rule="nonzero" x="90" y="126" width="27" height="27" rx="2"></rect>
            <circle id="椭圆形" fill="#FFFFFF" fill-rule="nonzero" cx="103.5" cy="133.816" r="5.68421"></circle>
            <path d="M113.447,150.158 L92.8421,150.158 C92.8421,144.664 97.2957,140.21 102.789,140.21 L103.5,140.21 C108.994,140.21 113.447,144.664 113.447,150.158 Z" id="路径" fill="#FFFFFF"></path>
            <circle id="椭圆形" fill="#356DFF" fill-rule="nonzero" cx="216" cy="130" r="20"></circle>
            <circle id="椭圆形" fill="#FFFFFF" fill-rule="nonzero" cx="216.5" cy="124.5" r="7.5"></circle>
            <path d="M202.29,138.254 C205.546,135.007 210.039,133 215,133 L217,133 C221.961,133 226.454,135.007 229.71,138.254 C226.909,142.896 221.817,146 216,146 C210.183,146 205.091,142.896 202.29,138.254 Z" id="路径" fill="#FFFFFF"></path>
            <circle id="椭圆形" fill="#356DFF" fill-rule="nonzero" cx="216" cy="130" r="20"></circle>
            <path d="M226.32,121.667 L205.653,121.667 C205.566,121.673 205.485,121.713 205.425,121.777 C205.366,121.841 205.333,121.926 205.333,122.013 L205.333,123.16 C205.333,123.277 205.355,123.394 205.4,123.503 C205.444,123.611 205.51,123.71 205.593,123.793 L213.593,131.793 L213.593,138.46 L218.427,140.867 L218.427,131.78 L226.427,123.78 C226.58,123.615 226.665,123.398 226.667,123.173 L226.667,122.013 C226.667,121.921 226.63,121.833 226.565,121.768 C226.5,121.703 226.412,121.667 226.32,121.667 Z" id="路径" fill="#FFFFFF" fill-rule="nonzero"></path>
        </g>
    </g>
</svg>