<svg width="300" height="220" viewBox="0 0 300 220" fill="none" xmlns="http://www.w3.org/2000/svg">
<path d="M146 200C195.706 200 236 159.706 236 110C236 60.2944 195.706 20 146 20C96.2944 20 56 60.2944 56 110C56 159.706 96.2944 200 146 200Z" fill="#E8F2FF"/>
<path d="M146 180C184.66 180 216 148.66 216 110C216 71.3401 184.66 40 146 40C107.34 40 76 71.3401 76 110C76 148.66 107.34 180 146 180Z" fill="#E9F1FE"/>
<g filter="url(#filter0_d_1704:4602)">
<path d="M224 41H68C66.8954 41 66 41.8954 66 43V171C66 172.105 66.8954 173 68 173H224C225.105 173 226 172.105 226 171V43C226 41.8954 225.105 41 224 41Z" fill="white"/>
</g>
<path d="M66 43C66 41.8954 66.8954 41 68 41H224C225.105 41 226 41.8954 226 43V58H66V43Z" fill="url(#paint0_linear_1704:4602)"/>
<path d="M74 51C75.1046 51 76 50.1046 76 49C76 47.8954 75.1046 47 74 47C72.8954 47 72 47.8954 72 49C72 50.1046 72.8954 51 74 51Z" fill="#4D5677"/>
<path d="M81 51C82.1046 51 83 50.1046 83 49C83 47.8954 82.1046 47 81 47C79.8954 47 79 47.8954 79 49C79 50.1046 79.8954 51 81 51Z" fill="#4D5677"/>
<path d="M88 51C89.1046 51 90 50.1046 90 49C90 47.8954 89.1046 47 88 47C86.8954 47 86 47.8954 86 49C86 50.1046 86.8954 51 88 51Z" fill="#4D5677"/>
<path d="M63 117C74.0457 117 83 108.046 83 97C83 85.9543 74.0457 77 63 77C51.9543 77 43 85.9543 43 97C43 108.046 51.9543 117 63 117Z" fill="#356DFF"/>
<path d="M71.9055 98.3897C71.9519 98.0286 71.9867 97.6675 71.9867 97.2839C71.9867 96.9002 71.9519 96.5391 71.9055 96.1781L74.3532 94.3162C74.5736 94.147 74.6316 93.8423 74.4924 93.5941L72.1723 89.6899C72.0331 89.4416 71.7199 89.3513 71.4647 89.4416L68.5762 90.57C67.973 90.1186 67.3233 89.7463 66.6157 89.4642L66.1749 86.474C66.1557 86.3412 66.0874 86.2198 65.9827 86.1326C65.8781 86.0453 65.7443 85.9982 65.6065 86.0001H60.9663C60.6763 86.0001 60.4327 86.2032 60.3979 86.474L59.9571 89.4642C59.2495 89.7463 58.5998 90.1299 57.9966 90.57L55.1081 89.4416C54.8413 89.3401 54.5397 89.4416 54.4005 89.6899L52.0804 93.5941C51.9296 93.8423 51.9992 94.147 52.2196 94.3162L54.6673 96.1781C54.6209 96.5391 54.5861 96.9115 54.5861 97.2839C54.5861 97.6562 54.6209 98.0286 54.6673 98.3897L52.2196 100.252C51.9992 100.421 51.9412 100.725 52.0804 100.974L54.4005 104.878C54.5397 105.126 54.8529 105.216 55.1081 105.126L57.9966 103.998C58.5998 104.449 59.2495 104.821 59.9571 105.104L60.3979 108.094C60.4327 108.365 60.6763 108.568 60.9663 108.568H65.6065C65.8965 108.568 66.1401 108.365 66.1749 108.094L66.6157 105.104C67.3233 104.821 67.973 104.438 68.5762 103.998L71.4647 105.126C71.7315 105.228 72.0331 105.126 72.1723 104.878L74.4924 100.974C74.6316 100.725 74.5736 100.421 74.3532 100.252L71.9055 98.3897ZM63.2864 101.233C61.0475 101.233 59.2263 99.4616 59.2263 97.2839C59.2263 95.1061 61.0475 93.3345 63.2864 93.3345C65.5253 93.3345 67.3465 95.1061 67.3465 97.2839C67.3465 99.4616 65.5253 101.233 63.2864 101.233Z" fill="white"/>
<path d="M210 127H90C88.8954 127 88 127.895 88 129V130C88 131.105 88.8954 132 90 132H210C211.105 132 212 131.105 212 130V129C212 127.895 211.105 127 210 127Z" fill="#EEF1F7"/>
<path d="M170 66H130C128.895 66 128 66.8954 128 68V69C128 70.1046 128.895 71 130 71H170C171.105 71 172 70.1046 172 69V68C172 66.8954 171.105 66 170 66Z" fill="#EEF1F7"/>
<path d="M160 141H90C88.8954 141 88 141.895 88 143V144C88 145.105 88.8954 146 90 146H160C161.105 146 162 145.105 162 144V143C162 141.895 161.105 141 160 141Z" fill="#EEF1F7"/>
<path d="M160 155H90C88.8954 155 88 155.895 88 157V158C88 159.105 88.8954 160 90 160H160C161.105 160 162 159.105 162 158V157C162 155.895 161.105 155 160 155Z" fill="#EEF1F7"/>
<path d="M212 175C223.046 175 232 166.046 232 155C232 143.954 223.046 135 212 135C200.954 135 192 143.954 192 155C192 166.046 200.954 175 212 175Z" fill="#356DFF"/>
<path d="M220 153H205C204.448 153 204 153.448 204 154V155C204 155.552 204.448 156 205 156H220C220.552 156 221 155.552 221 155V154C221 153.448 220.552 153 220 153Z" fill="white"/>
<path d="M211 147V162C211 162.552 211.448 163 212 163H213C213.552 163 214 162.552 214 162V147C214 146.448 213.552 146 213 146H212C211.448 146 211 146.448 211 147Z" fill="white"/>
<path d="M88 82C88 80.8954 88.8954 80 90 80H210C211.105 80 212 80.8954 212 82V116C212 117.105 211.105 118 210 118H90C88.8954 118 88 117.105 88 116V82Z" fill="#EEF1F6"/>
<path d="M140.115 90.6446C140.547 89.9349 141.577 89.9349 142.009 90.6446L153.961 110.275C154.411 111.014 153.879 111.96 153.014 111.96H129.111C128.245 111.96 127.714 111.014 128.163 110.275L140.115 90.6446Z" fill="#909BB3"/>
<path d="M152.877 95.1517C153.312 94.4611 154.319 94.4611 154.754 95.1517L164.269 110.259C164.734 110.998 164.203 111.959 163.33 111.959H144.3C143.427 111.959 142.897 110.998 143.362 110.259L152.877 95.1517Z" fill="#B8C5DF"/>
<path d="M160.33 92C161.987 92 163.33 90.6569 163.33 89C163.33 87.3431 161.987 86 160.33 86C158.673 86 157.33 87.3431 157.33 89C157.33 90.6569 158.673 92 160.33 92Z" fill="#B8C5DF"/>
<defs>
<filter id="filter0_d_1704:4602" x="26" y="5" width="240" height="212" filterUnits="userSpaceOnUse" color-interpolation-filters="sRGB">
<feFlood flood-opacity="0" result="BackgroundImageFix"/>
<feColorMatrix in="SourceAlpha" type="matrix" values="0 0 0 0 0 0 0 0 0 0 0 0 0 0 0 0 0 0 127 0" result="hardAlpha"/>
<feOffset dy="4"/>
<feGaussianBlur stdDeviation="20"/>
<feColorMatrix type="matrix" values="0 0 0 0 0 0 0 0 0 0 0 0 0 0 0 0 0 0 0.12 0"/>
<feBlend mode="normal" in2="BackgroundImageFix" result="effect1_dropShadow_1704:4602"/>
<feBlend mode="normal" in="SourceGraphic" in2="effect1_dropShadow_1704:4602" result="shape"/>
</filter>
<linearGradient id="paint0_linear_1704:4602" x1="66" y1="49.5" x2="226" y2="49.5" gradientUnits="userSpaceOnUse">
<stop stop-color="#59647C"/>
<stop offset="1" stop-color="#7A8499"/>
</linearGradient>
</defs>
</svg>
