<?xml version="1.0" encoding="UTF-8"?>
<svg width="300px" height="220px" viewBox="0 0 300 220" version="1.1" xmlns="http://www.w3.org/2000/svg" xmlns:xlink="http://www.w3.org/1999/xlink">
    <title>创建和管理博客集合6</title>
    <defs>
        <rect id="path-1" x="66" y="41" width="160" height="132" rx="2"></rect>
        <filter x="-38.8%" y="-43.9%" width="177.5%" height="193.9%" filterUnits="objectBoundingBox" id="filter-2">
            <feOffset dx="0" dy="4" in="SourceAlpha" result="shadowOffsetOuter1"></feOffset>
            <feGaussianBlur stdDeviation="20" in="shadowOffsetOuter1" result="shadowBlurOuter1"></feGaussianBlur>
            <feColorMatrix values="0 0 0 0 0   0 0 0 0 0   0 0 0 0 0  0 0 0 0.12 0" type="matrix" in="shadowBlurOuter1"></feColorMatrix>
        </filter>
        <linearGradient x1="0%" y1="50%" x2="100%" y2="50%" id="linearGradient-3">
            <stop stop-color="#59647C" offset="0%"></stop>
            <stop stop-color="#7A8499" offset="100%"></stop>
        </linearGradient>
    </defs>
    <g id="页面-1" stroke="none" stroke-width="1" fill="none" fill-rule="evenodd">
        <g id="创建和管理博客集合6" fill-rule="nonzero">
            <rect id="矩形" fill="#FFFFFF" x="0" y="0" width="300" height="220"></rect>
            <circle id="椭圆形" fill="#E8F2FF" cx="146" cy="110" r="90"></circle>
            <circle id="椭圆形" fill="#E9F1FE" cx="146" cy="110" r="70"></circle>
            <g id="矩形">
                <use fill="black" fill-opacity="1" filter="url(#filter-2)" xlink:href="#path-1"></use>
                <use fill="#FFFFFF" xlink:href="#path-1"></use>
            </g>
            <path d="M66,43 C66,41.8954 66.8954,41 68,41 L224,41 C225.105,41 226,41.8954 226,43 L226,58 L66,58 L66,43 Z" id="路径" fill="url(#linearGradient-3)"></path>
            <circle id="椭圆形" fill="#4D5677" cx="74" cy="49" r="2"></circle>
            <circle id="椭圆形" fill="#4D5677" cx="81" cy="49" r="2"></circle>
            <circle id="椭圆形" fill="#4D5677" cx="88" cy="49" r="2"></circle>
            <rect id="矩形" fill="#EEF1F7" x="136" y="71.5715" width="68" height="5" rx="2"></rect>
            <rect id="矩形" fill="#EEF1F7" x="136" y="82.5715" width="36" height="5" rx="2"></rect>
            <path d="M94,71 C94,69.8954 94.8954,69 96,69 L126,69 C127.105,69 128,69.8954 128,71 L128,89 C128,90.1046 127.105,91 126,91 L96,91 C94.8954,91 94,90.1046 94,89 L94,71 Z" id="路径" fill="#EEF1F6"></path>
            <path d="M106.619,75.2201 C106.882,74.7893 107.507,74.7893 107.769,75.2201 L115.026,87.1383 C115.299,87.587 114.976,88.1617 114.451,88.1617 L99.938,88.1617 C99.4127,88.1617 99.0898,87.587 99.3629,87.1383 L106.619,75.2201 Z" id="路径" fill="#909BB3"></path>
            <path d="M114.367,77.9563 C114.631,77.537 115.242,77.537 115.506,77.9563 L121.284,87.1286 C121.566,87.577 121.244,88.1607 120.714,88.1607 L109.16,88.1607 C108.63,88.1607 108.308,87.577 108.59,87.1286 L114.367,77.9563 Z" id="路径" fill="#B8C5DF"></path>
            <circle id="椭圆形" fill="#B8C5DF" cx="118.893" cy="74.2213" r="1.82143"></circle>
            <rect id="矩形" fill="#EEF1F7" x="136" y="105.572" width="68" height="5" rx="2"></rect>
            <rect id="矩形" fill="#EEF1F7" x="136" y="116.572" width="36" height="5" rx="2"></rect>
            <path d="M94,105 C94,103.895 94.8954,103 96,103 L126,103 C127.105,103 128,103.895 128,105 L128,123 C128,124.105 127.105,125 126,125 L96,125 C94.8954,125 94,124.105 94,123 L94,105 Z" id="路径" fill="#EEF1F6"></path>
            <path d="M106.619,109.22 C106.882,108.789 107.507,108.789 107.769,109.22 L115.026,121.138 C115.299,121.587 114.976,122.162 114.451,122.162 L99.938,122.162 C99.4127,122.162 99.0898,121.587 99.3629,121.138 L106.619,109.22 Z" id="路径" fill="#909BB3"></path>
            <path d="M114.367,111.956 C114.631,111.537 115.242,111.537 115.506,111.956 L121.284,121.129 C121.566,121.577 121.244,122.161 120.714,122.161 L109.16,122.161 C108.63,122.161 108.308,121.577 108.59,121.129 L114.367,111.956 Z" id="路径" fill="#B8C5DF"></path>
            <circle id="椭圆形" fill="#B8C5DF" cx="118.893" cy="108.221" r="1.82143"></circle>
            <rect id="矩形" fill="#EEF1F7" x="136" y="139.572" width="68" height="5" rx="2"></rect>
            <rect id="矩形" fill="#EEF1F7" x="136" y="150.572" width="36" height="5" rx="2"></rect>
            <path d="M94,139 C94,137.895 94.8954,137 96,137 L126,137 C127.105,137 128,137.895 128,139 L128,157 C128,158.105 127.105,159 126,159 L96,159 C94.8954,159 94,158.105 94,157 L94,139 Z" id="路径" fill="#EEF1F6"></path>
            <path d="M106.619,143.22 C106.882,142.789 107.507,142.789 107.769,143.22 L115.026,155.138 C115.299,155.587 114.976,156.162 114.451,156.162 L99.938,156.162 C99.4127,156.162 99.0898,155.587 99.3629,155.138 L106.619,143.22 Z" id="路径" fill="#909BB3"></path>
            <path d="M114.367,145.956 C114.631,145.537 115.242,145.537 115.506,145.956 L121.284,155.129 C121.566,155.577 121.244,156.161 120.714,156.161 L109.16,156.161 C108.63,156.161 108.308,155.577 108.59,155.129 L114.367,145.956 Z" id="路径" fill="#B8C5DF"></path>
            <circle id="椭圆形" fill="#B8C5DF" cx="118.893" cy="142.221" r="1.82143"></circle>
            <circle id="椭圆形" fill="#356DFF" cx="63" cy="97" r="20"></circle>
            <path d="M71.9055,98.3897 C71.9519,98.0286 71.9867,97.6675 71.9867,97.2839 C71.9867,96.9002 71.9519,96.5391 71.9055,96.1781 L74.3532,94.3162 C74.5736,94.147 74.6316,93.8423 74.4924,93.5941 L72.1723,89.6899 C72.0331,89.4416 71.7199,89.3513 71.4647,89.4416 L68.5762,90.57 C67.973,90.1186 67.3233,89.7463 66.6157,89.4642 L66.1749,86.474 C66.1557,86.3412 66.0874,86.2198 65.9827,86.1326 C65.8781,86.0453 65.7443,85.9982 65.6065,86.0000447 L60.9663,86.0000447 C60.6763,86.0000447 60.4327,86.2032 60.3979,86.474 L59.9571,89.4642 C59.2495,89.7463 58.5998,90.1299 57.9966,90.57 L55.1081,89.4416 C54.8413,89.3401 54.5397,89.4416 54.4005,89.6899 L52.0804,93.5941 C51.9296,93.8423 51.9992,94.147 52.2196,94.3162 L54.6673,96.1781 C54.6209,96.5391 54.5861,96.9115 54.5861,97.2839 C54.5861,97.6562 54.6209,98.0286 54.6673,98.3897 L52.2196,100.252 C51.9992,100.421 51.9412,100.725 52.0804,100.974 L54.4005,104.878 C54.5397,105.126 54.8529,105.216 55.1081,105.126 L57.9966,103.998 C58.5998,104.449 59.2495,104.821 59.9571,105.104 L60.3979,108.094 C60.4327,108.365 60.6763,108.568 60.9663,108.568 L65.6065,108.568 C65.8965,108.568 66.1401,108.365 66.1749,108.094 L66.6157,105.104 C67.3233,104.821 67.973,104.438 68.5762,103.998 L71.4647,105.126 C71.7315,105.228 72.0331,105.126 72.1723,104.878 L74.4924,100.974 C74.6316,100.725 74.5736,100.421 74.3532,100.252 L71.9055,98.3897 Z M63.2864,101.233 C61.0475,101.233 59.2263,99.4616 59.2263,97.2839 C59.2263,95.1061 61.0475,93.3345 63.2864,93.3345 C65.5253,93.3345 67.3465,95.1061 67.3465,97.2839 C67.3465,99.4616 65.5253,101.233 63.2864,101.233 Z" id="形状" fill="#FFFFFF"></path>
            <circle id="椭圆形" fill="#356DFF" cx="212" cy="155" r="20"></circle>
            <rect id="矩形" fill="#FFFFFF" x="204" y="153" width="17" height="3" rx="1"></rect>
            <rect id="矩形" fill="#FFFFFF" transform="translate(212.500000, 154.500000) rotate(-90.000000) translate(-212.500000, -154.500000) " x="204" y="153" width="17" height="3" rx="1"></rect>
        </g>
    </g>
</svg>