<svg width="300" height="220" viewBox="0 0 300 220" fill="none" xmlns="http://www.w3.org/2000/svg">
<rect width="300" height="220" fill="white"/>
<g filter="url(#filter0_f_1790:13803)">
<circle cx="146" cy="106" r="52" fill="#E9F1FE"/>
</g>
<g filter="url(#filter1_d_1790:13803)">
<rect x="89" y="65" width="114" height="88" rx="2" fill="white"/>
</g>
<circle cx="146" cy="112" r="19.2" stroke="#7C8AAA" stroke-width="1.6" stroke-dasharray="4 3"/>
<circle cx="146" cy="106" r="7.2" fill="white" stroke="#7C8AAA" stroke-width="1.6" stroke-dasharray="4 3"/>
<path d="M133 123C134.469 121 139.169 117 146.22 117C153.271 117 157.678 121 159 123" stroke="#7C8AAA" stroke-width="1.6" stroke-dasharray="4 3"/>
<path d="M89 67C89 65.8954 89.8954 65 91 65H201C202.105 65 203 65.8954 203 67V75H89V67Z" fill="#7C8AAA"/>
<circle cx="97" cy="70" r="2" fill="#4D5677" fill-opacity="0.5"/>
<circle cx="104" cy="70" r="2" fill="#4D5677" fill-opacity="0.5"/>
<circle cx="111" cy="70" r="2" fill="#4D5677" fill-opacity="0.5"/>
<circle cx="194" cy="125" r="13" stroke="#2A62F4" stroke-width="6"/>
<path d="M204 137L214 147" stroke="#2A62F4" stroke-width="6"/>
<g clip-path="url(#clip0_1790:13803)">
<rect width="300" height="220" fill="white"/>
<g filter="url(#filter2_f_1790:13803)">
<circle cx="76" cy="110" r="52" fill="#E9F1FE"/>
</g>
<g filter="url(#filter3_f_1790:13803)">
<circle cx="224" cy="110" r="52" fill="#E9F1FE"/>
</g>
<path d="M171.707 110.707C172.098 110.317 172.098 109.683 171.707 109.293L165.343 102.929C164.953 102.538 164.319 102.538 163.929 102.929C163.538 103.319 163.538 103.953 163.929 104.343L169.586 110L163.929 115.657C163.538 116.047 163.538 116.681 163.929 117.071C164.319 117.462 164.953 117.462 165.343 117.071L171.707 110.707ZM129 111L130.5 111L130.5 109L129 109L129 111ZM133.5 111L136.5 111L136.5 109L133.5 109L133.5 111ZM139.5 111L142.5 111L142.5 109L139.5 109L139.5 111ZM145.5 111L148.5 111L148.5 109L145.5 109L145.5 111ZM151.5 111L154.5 111L154.5 109L151.5 109L151.5 111ZM157.5 111L160.5 111L160.5 109L157.5 109L157.5 111ZM163.5 111L166.5 111L166.5 109L163.5 109L163.5 111ZM169.5 111L171 111L171 109L169.5 109L169.5 111Z" fill="#C8CCD8"/>
<g filter="url(#filter4_d_1790:13803)">
<rect x="184" y="70" width="80" height="80" rx="16" fill="white"/>
<rect x="188" y="74" width="72" height="72" fill="white"/>
<g clip-path="url(#clip1_1790:13803)">
<circle cx="224.116" cy="110.433" r="24.2667" transform="rotate(-30 224.116 110.433)" fill="#333E48" stroke="#333E48" stroke-width="2.6"/>
<path fill-rule="evenodd" clip-rule="evenodd" d="M250 84H198V136H250V84ZM224 134.267C237.402 134.267 248.267 123.402 248.267 110C248.267 96.5978 237.402 85.7333 224 85.7333C210.598 85.7333 199.734 96.5978 199.734 110C199.734 123.402 210.598 134.267 224 134.267Z" fill="white"/>
<circle cx="224" cy="110" r="24.2667" stroke="#333E48" stroke-width="2.6"/>
<circle cx="224" cy="110" r="24.2667" stroke="#333E48" stroke-width="2.6"/>
<circle cx="224" cy="110" r="24.2667" stroke="#333E48" stroke-width="2.6"/>
<path fill-rule="evenodd" clip-rule="evenodd" d="M209.267 102.86C209.267 100.947 211.263 99.6891 212.989 100.515L218.666 103.232C218.783 103.288 218.911 103.317 219.04 103.317H240.271C240.401 103.317 240.529 103.288 240.646 103.232L246.273 100.526C247.999 99.6956 250 100.953 250 102.869V134.267C250 135.224 249.224 136 248.267 136H211C210.043 136 209.267 135.224 209.267 134.267L209.267 102.86Z" fill="white"/>
<path fill-rule="evenodd" clip-rule="evenodd" d="M250 84H198V136H250V84ZM224 134.267C237.402 134.267 248.267 123.402 248.267 110C248.267 96.5978 237.402 85.7333 224 85.7333C210.598 85.7333 199.734 96.5978 199.734 110C199.734 123.402 210.598 134.267 224 134.267Z" fill="white"/>
<circle cx="224" cy="110" r="24.2667" stroke="#333E48" stroke-width="2.6"/>
<path d="M218.8 114.001L228.48 117.189C229.205 117.428 229.988 117.426 230.711 117.182L240.467 113.9" stroke="#333E48" stroke-width="3.46667" stroke-linecap="round" stroke-linejoin="round"/>
</g>
</g>
<g filter="url(#filter5_d_1790:13803)">
<rect x="36" y="70" width="80" height="80" rx="16" fill="white"/>
<rect x="40" y="74" width="72" height="72" fill="white"/>
<path d="M71.6001 102.262C72.0924 101.933 72.6713 101.758 73.2635 101.758C73.6567 101.758 74.0461 101.835 74.4095 101.985C74.7728 102.136 75.1029 102.356 75.381 102.634C75.6591 102.912 75.8796 103.243 76.03 103.606C76.1804 103.969 76.2578 104.359 76.2576 104.752C76.2576 105.344 76.082 105.923 75.753 106.415C75.424 106.908 74.9564 107.291 74.4093 107.518C73.8622 107.745 73.2602 107.804 72.6794 107.688C72.0986 107.573 71.5651 107.288 71.1463 106.869C70.7276 106.45 70.4424 105.917 70.3269 105.336C70.2114 104.755 70.2707 104.153 70.4973 103.606C70.7239 103.059 71.1077 102.591 71.6001 102.262Z" fill="#333F48"/>
<path fill-rule="evenodd" clip-rule="evenodd" d="M50 110C50 95.6471 61.6376 84.0001 76 84.0001C90.3612 84.0001 102 95.6471 102 110C102 124.353 90.3529 136 76 136C61.647 136 50 124.353 50 110ZM67.1247 118.059L70.92 132.62C73.6793 133.241 76.5293 133.351 79.3282 132.944L67.1247 118.059ZM89.1612 129.091L66.5812 115.914L80.4 132.769C83.5441 132.165 86.5278 130.912 89.1612 129.091ZM66.2247 114.606L89.9929 128.485L90.0035 128.479C93.473 125.85 96.1323 122.298 97.6773 118.228C99.2223 114.158 99.5906 109.736 98.74 105.467L77.7412 94.4401L63.68 98.3859C63.2627 98.5032 62.908 98.7795 62.6922 99.1555C62.4764 99.5314 62.4167 99.977 62.5259 100.397L66.2247 114.606Z" fill="#333F48"/>
</g>
</g>
<defs>
<filter id="filter0_f_1790:13803" x="54" y="14" width="184" height="184" filterUnits="userSpaceOnUse" color-interpolation-filters="sRGB">
<feFlood flood-opacity="0" result="BackgroundImageFix"/>
<feBlend mode="normal" in="SourceGraphic" in2="BackgroundImageFix" result="shape"/>
<feGaussianBlur stdDeviation="20" result="effect1_foregroundBlur_1790:13803"/>
</filter>
<filter id="filter1_d_1790:13803" x="69" y="55" width="154" height="128" filterUnits="userSpaceOnUse" color-interpolation-filters="sRGB">
<feFlood flood-opacity="0" result="BackgroundImageFix"/>
<feColorMatrix in="SourceAlpha" type="matrix" values="0 0 0 0 0 0 0 0 0 0 0 0 0 0 0 0 0 0 127 0" result="hardAlpha"/>
<feOffset dy="10"/>
<feGaussianBlur stdDeviation="10"/>
<feColorMatrix type="matrix" values="0 0 0 0 0 0 0 0 0 0 0 0 0 0 0 0 0 0 0.03 0"/>
<feBlend mode="normal" in2="BackgroundImageFix" result="effect1_dropShadow_1790:13803"/>
<feBlend mode="normal" in="SourceGraphic" in2="effect1_dropShadow_1790:13803" result="shape"/>
</filter>
<filter id="filter2_f_1790:13803" x="-16" y="18" width="184" height="184" filterUnits="userSpaceOnUse" color-interpolation-filters="sRGB">
<feFlood flood-opacity="0" result="BackgroundImageFix"/>
<feBlend mode="normal" in="SourceGraphic" in2="BackgroundImageFix" result="shape"/>
<feGaussianBlur stdDeviation="20" result="effect1_foregroundBlur_1790:13803"/>
</filter>
<filter id="filter3_f_1790:13803" x="132" y="18" width="184" height="184" filterUnits="userSpaceOnUse" color-interpolation-filters="sRGB">
<feFlood flood-opacity="0" result="BackgroundImageFix"/>
<feBlend mode="normal" in="SourceGraphic" in2="BackgroundImageFix" result="shape"/>
<feGaussianBlur stdDeviation="20" result="effect1_foregroundBlur_1790:13803"/>
</filter>
<filter id="filter4_d_1790:13803" x="164" y="60" width="120" height="120" filterUnits="userSpaceOnUse" color-interpolation-filters="sRGB">
<feFlood flood-opacity="0" result="BackgroundImageFix"/>
<feColorMatrix in="SourceAlpha" type="matrix" values="0 0 0 0 0 0 0 0 0 0 0 0 0 0 0 0 0 0 127 0" result="hardAlpha"/>
<feOffset dy="10"/>
<feGaussianBlur stdDeviation="10"/>
<feColorMatrix type="matrix" values="0 0 0 0 0 0 0 0 0 0 0 0 0 0 0 0 0 0 0.03 0"/>
<feBlend mode="normal" in2="BackgroundImageFix" result="effect1_dropShadow_1790:13803"/>
<feBlend mode="normal" in="SourceGraphic" in2="effect1_dropShadow_1790:13803" result="shape"/>
</filter>
<filter id="filter5_d_1790:13803" x="16" y="60" width="120" height="120" filterUnits="userSpaceOnUse" color-interpolation-filters="sRGB">
<feFlood flood-opacity="0" result="BackgroundImageFix"/>
<feColorMatrix in="SourceAlpha" type="matrix" values="0 0 0 0 0 0 0 0 0 0 0 0 0 0 0 0 0 0 127 0" result="hardAlpha"/>
<feOffset dy="10"/>
<feGaussianBlur stdDeviation="10"/>
<feColorMatrix type="matrix" values="0 0 0 0 0 0 0 0 0 0 0 0 0 0 0 0 0 0 0.03 0"/>
<feBlend mode="normal" in2="BackgroundImageFix" result="effect1_dropShadow_1790:13803"/>
<feBlend mode="normal" in="SourceGraphic" in2="effect1_dropShadow_1790:13803" result="shape"/>
</filter>
<clipPath id="clip0_1790:13803">
<rect width="300" height="220" fill="white"/>
</clipPath>
<clipPath id="clip1_1790:13803">
<rect x="198" y="84" width="52" height="52" fill="white"/>
</clipPath>
</defs>
</svg>
