<?xml version="1.0" encoding="UTF-8"?>
<svg width="372px" height="224px" viewBox="0 0 372 224" version="1.1" xmlns="http://www.w3.org/2000/svg" xmlns:xlink="http://www.w3.org/1999/xlink">
    <title>同步联系人至 SmartPush</title>
    <defs>
        <filter x="-57.7%" y="-57.7%" width="215.4%" height="215.4%" filterUnits="objectBoundingBox" id="filter-1">
            <feGaussianBlur stdDeviation="20" in="SourceGraphic"></feGaussianBlur>
        </filter>
        <filter x="-57.7%" y="-57.7%" width="215.4%" height="215.4%" filterUnits="objectBoundingBox" id="filter-2">
            <feGaussianBlur stdDeviation="20" in="SourceGraphic"></feGaussianBlur>
        </filter>
    </defs>
    <g id="页面-1" stroke="none" stroke-width="1" fill="none" fill-rule="evenodd">
        <g id="同步联系人至-SmartPush" transform="translate(36.000000, 2.000000)">
            <rect id="矩形" fill-rule="nonzero" x="0" y="0" width="300" height="220"></rect>
            <circle id="椭圆形" fill="#E9F1FE" fill-rule="nonzero" filter="url(#filter-1)" cx="76" cy="110" r="52"></circle>
            <circle id="椭圆形" fill="#E9F1FE" fill-rule="nonzero" filter="url(#filter-2)" cx="224" cy="110" r="52"></circle>
            <path d="M171.707,110.707 C172.098,110.317 172.098,109.683 171.707,109.293 L165.343,102.929 C164.953,102.538 164.319,102.538 163.929,102.929 C163.538,103.319 163.538,103.953 163.929,104.343 L169.586,110 L163.929,115.657 C163.538,116.047 163.538,116.681 163.929,117.071 C164.319,117.462 164.953,117.462 165.343,117.071 L171.707,110.707 Z M129,111 L130.5,111 L130.5,109 L129,109 L129,111 Z M133.5,111 L136.5,111 L136.5,109 L133.5,109 L133.5,111 Z M139.5,111 L142.5,111 L142.5,109 L139.5,109 L139.5,111 Z M145.5,111 L148.5,111 L148.5,109 L145.5,109 L145.5,111 Z M151.5,111 L154.5,111 L154.5,109 L151.5,109 L151.5,111 Z M157.5,111 L160.5,111 L160.5,109 L157.5,109 L157.5,111 Z M163.5,111 L166.5,111 L166.5,109 L163.5,109 L163.5,111 Z M169.5,111 L171,111 L171,109 L169.5,109 L169.5,111 Z" id="形状" fill="#C8CCD8" fill-rule="nonzero"></path>
            <g id="编组" transform="translate(184.000000, 70.000000)">
                <rect id="矩形" fill="#FFFFFF" fill-rule="nonzero" x="0" y="0" width="80" height="80" rx="16"></rect>
                <g transform="translate(6.000000, 7.000000)">
                    <circle id="椭圆形" stroke="#333E48" stroke-width="2.6" fill="#333E48" fill-rule="nonzero" transform="translate(34.116000, 33.433000) rotate(-30.000000) translate(-34.116000, -33.433000) " cx="34.116" cy="33.433" r="24.2667"></circle>
                    <path d="M60,7 L8,7 L8,59 L60,59 L60,7 Z M34,57.267 C47.402,57.267 58.267,46.402 58.267,33 C58.267,19.5978 47.402,8.7333 34,8.7333 C20.598,8.7333 9.734,19.5978 9.734,33 C9.734,46.402 20.598,57.267 34,57.267 Z" id="形状" fill="#FFFFFF"></path>
                    <circle id="椭圆形" stroke="#333E48" stroke-width="2.6" cx="34" cy="33" r="24.2667"></circle>
                    <circle id="椭圆形" stroke="#333E48" stroke-width="2.6" cx="34" cy="33" r="24.2667"></circle>
                    <circle id="椭圆形" stroke="#333E48" stroke-width="2.6" cx="34" cy="33" r="24.2667"></circle>
                    <path d="M19.267,25.86 C19.267,23.947 21.263,22.6891 22.989,23.515 L28.666,26.232 C28.783,26.288 28.911,26.317 29.04,26.317 L50.271,26.317 C50.401,26.317 50.529,26.288 50.646,26.232 L56.273,23.526 C57.999,22.6956 60,23.953 60,25.869 L60,57.267 C60,58.224 59.224,59 58.267,59 L21,59 C20.043,59 19.267,58.224 19.267,57.267 L19.267,25.86 Z" id="路径" fill="#FFFFFF"></path>
                    <path d="M34,7.4333 C19.8799015,7.4333 8.4333,18.8799015 8.4333,33 C8.4333,47.1200985 19.8799015,58.5667 34,58.5667 C48.1200985,58.5667 59.5667,47.1200985 59.5667,33 C59.5667,18.8799015 48.1200985,7.4333 34,7.4333 Z M34,10.0333 C46.6841582,10.0333 56.9667,20.3158418 56.9667,33 C56.9667,45.6841582 46.6841582,55.9667 34,55.9667 C21.3158418,55.9667 11.0333,45.6841582 11.0333,33 C11.0333,20.3158418 21.3158418,10.0333 34,10.0333 Z" id="椭圆形" fill="#333E48" fill-rule="nonzero"></path>
                    <path d="M28.8,37.001 L38.48,40.189 C39.205,40.428 39.988,40.426 40.711,40.182 L50.467,36.9" id="路径" stroke="#333E48" stroke-width="3.46667" stroke-linecap="round" stroke-linejoin="round"></path>
                </g>
            </g>
            <g id="编组" transform="translate(36.000000, 70.000000)">
                <rect id="矩形" fill="#FFFFFF" fill-rule="nonzero" x="0" y="0" width="80" height="80" rx="16"></rect>
                <path d="M35.6001,32.262 C36.0924,31.933 36.6713,31.758 37.2635,31.758 C37.6567,31.758 38.0461,31.835 38.4095,31.985 C38.7728,32.136 39.1029,32.356 39.381,32.634 C39.6591,32.912 39.8796,33.243 40.03,33.606 C40.1804,33.969 40.2578,34.359 40.2576004,34.752 C40.2576004,35.344 40.082,35.923 39.753,36.415 C39.424,36.908 38.9564,37.291 38.4093,37.518 C37.8622,37.745 37.2602,37.804 36.6794,37.688 C36.0986,37.573 35.5651,37.288 35.1463,36.869 C34.7276,36.45 34.4424,35.917 34.3269,35.336 C34.2114,34.755 34.2707,34.153 34.4973,33.606 C34.7239,33.059 35.1077,32.591 35.6001,32.262 Z" id="路径" fill="#333F48" fill-rule="nonzero"></path>
                <path d="M14,40 C14,25.6471 25.6376,14.0001 40,14.0001 C54.3612,14.0001 66,25.6471 66,40 C66,54.353 54.3529,66 40,66 C25.647,66 14,54.353 14,40 Z M31.1247,48.059 L34.92,62.62 C37.6793,63.241 40.5293,63.351 43.3282,62.944 L31.1247,48.059 Z M53.1612,59.091 L30.5812,45.914 L44.4,62.769 C47.5441,62.165 50.5278,60.912 53.1612,59.091 Z M30.2247,44.606 L53.9929,58.485 L54.0035,58.479 C57.473,55.85 60.1323,52.298 61.6773,48.228 C63.2223,44.158 63.5906,39.736 62.74,35.467 L41.7412,24.4401 L27.68,28.3859 C27.2627,28.5032 26.908,28.7795 26.6922,29.1555 C26.4764,29.5314 26.4167,29.977 26.5259,30.397 L30.2247,44.606 Z" id="形状" fill="#333F48"></path>
            </g>
        </g>
    </g>
</svg>